# xmcd CD database file
#
# Track frame offsets:
#	205
#	16562
#	32692
#	52110
#	74725
#	95410
#	117847
#	139937
#	156742
#	173935
#	195107
#	219982
#	229970
#	241885
#	250597
#	265055
#	284675
#
# Disc length: 4054 seconds
#
# Revision: 4
# Processed by: cddbd v1.5.2PL0 Copyright (c) Steve Scherf et al.
# Submitted via: CDex 1.70beta2
#
DISCID=f40fd411
DTITLE=Various Artist - Larry Howard's Cornerstone Blues Jam
DYEAR=1992
DGENRE=Blues
TTITLE0=Good News Blues - Larry Howard
TTITLE1=Love Will Make You Change Your Ways - Larry Howard
TTITLE2=Lean On Me - Margaret Becker
TTITLE3=Evangelistic Blues - Larry Howard and Darrell Mansfield
TTITLE4=Presence Of The Lord - Larry Howard, Glenn Kaiser and Darrell Mansfield
TTITLE5=Take Up Your Cross - Guardian
TTITLE6=Judgement Day Blues - Mark Farner
TTITLE7=Trouble No More - Larry Howard
TTITLE8=Here Am I - Eddie DeGarmo and Larry Howard
TTITLE9=Some Kind Of Wonderful - Mark Farner and Margaret Becker
TTITLE10=Operator - Jessy Dixon
TTITLE11=If We Ever Needed The Lord Before, We Sure Do Need Him Now - Elsa Harris
TTITLE12=Keep Your Hand On The Plow - Jessy Dixon and Elso Harris
TTITLE13=Walk Over God's Heaven - Margaret Becker
TTITLE14=Search Me Lord - Mark Farner
TTITLE15=Precious Lord - Elsa Harris and Vernessa Mitchell
TTITLE16=Nobody But You - Larry Howard
EXTD=YEAR: 1992
EXTT0=Larry Howard\n
EXTT1=Larry Howard\n
EXTT2=Margaret Becker\n
EXTT3=Larry Howard and Darrell Mansfield\n
EXTT4=Larry Howard, Glenn Kaiser and Darrel Mansfield\n
EXTT5=Guardian\n
EXTT6=Mark Farner\n
EXTT7=Larry Howard\n
EXTT8=Eddie DeGarmo and Larry Howard\n
EXTT9=Mark Farner and Margaret Becker\n
EXTT10=Jessy Dixon\n
EXTT11=Elsa Harris\n
EXTT12=Jessy Dixon and Elsa Harris\n
EXTT13=Margaret Becker\n
EXTT14=Mark Farner\n
EXTT15=Elsa Harris and Vanessa Mitchell\n
EXTT16=Larry Howard\n
PLAYORDER=
